<?xml version="1.0" standalone="no"?>
<!DOCTYPE svg PUBLIC "-//W3C//DTD SVG 20010904//EN"
 "http://www.w3.org/TR/2001/REC-SVG-20010904/DTD/svg10.dtd">
<svg version="1.0" xmlns="http://www.w3.org/2000/svg"
 width="1200.000000pt" height="1200.000000pt" viewBox="0 0 1200.000000 1200.000000"
 preserveAspectRatio="xMidYMid meet">
<metadata>
Created by potrace 1.16, written by Peter Selinger 2001-2019
</metadata>
<g transform="translate(0.000000,1200.000000) scale(0.100000,-0.100000)"
fill="#000000" stroke="none">
<path d="M5685 10964 c-863 -38 -1532 -156 -2234 -396 -1342 -458 -2372 -1250
-2920 -2246 -366 -665 -478 -1443 -314 -2182 214 -970 934 -1874 2001 -2514
61 -37 112 -71 112 -76 0 -22 -107 -337 -157 -459 -174 -431 -360 -728 -676
-1078 -474 -525 -489 -543 -513 -644 -18 -75 -13 -124 20 -194 46 -99 116
-156 217 -175 99 -19 519 55 887 155 1077 294 1963 753 2791 1445 l126 105
190 -19 c159 -15 280 -19 740 -19 503 -1 569 1 775 21 876 88 1617 279 2330
599 833 374 1505 882 1995 1508 173 221 368 547 470 785 117 274 201 595 236
910 18 160 15 519 -5 685 -78 628 -321 1183 -751 1715 -430 533 -977 963
-1673 1316 -838 425 -1787 675 -2821 744 -165 11 -693 20 -826 14z m783 -854
c592 -43 1121 -146 1657 -325 674 -224 1235 -525 1715 -919 126 -103 424 -405
524 -531 317 -399 499 -811 557 -1260 14 -116 14 -416 0 -525 -62 -460 -247
-875 -567 -1275 -121 -151 -401 -429 -562 -557 -286 -228 -546 -391 -907 -568
-824 -405 -1703 -617 -2685 -649 -376 -12 -666 1 -1165 54 -126 14 -244 26
-261 27 -28 3 -53 -16 -219 -161 -103 -91 -239 -207 -303 -258 -393 -320 -885
-624 -1346 -833 -86 -39 -166 -74 -179 -79 -20 -8 -11 15 68 172 171 341 241
534 405 1118 61 217 113 401 116 410 3 12 -28 35 -123 89 -483 277 -597 345
-748 445 -495 330 -880 724 -1141 1172 -394 676 -425 1453 -85 2150 155 317
337 561 642 858 332 324 693 573 1164 805 788 387 1637 600 2590 650 198 10
640 5 853 -10z"/>
</g>
</svg>
