<svg xmlns="http://www.w3.org/2000/svg" version="1.1" xmlns:xlink="http://www.w3.org/1999/xlink" xmlns:svgjs="http://svgjs.dev/svgjs" width="72.17321571772253" height="45" viewBox="0 0 2000 1247"><g transform="matrix(1,0,0,1,-1.2121212121212466,0.504858299595071)"><svg viewBox="0 0 396 247" data-background-color="#ffffff" preserveAspectRatio="xMidYMid meet" height="1247" width="2000" xmlns="http://www.w3.org/2000/svg" xmlns:xlink="http://www.w3.org/1999/xlink"><g id="tight-bounds" transform="matrix(1,0,0,1,0.2400000000000091,-0.09999999999999432)"><svg viewBox="0 0 395.52 247.2" height="247.2" width="395.52"><g><svg></svg></g><g><svg viewBox="0 0 395.52 247.2" height="247.2" width="395.52"><g transform="matrix(1,0,0,1,39.55199999999999,107.60308719851577)"><svg viewBox="0 0 316.416 31.993825602968457" height="31.993825602968457" width="316.416"><g><svg viewBox="0 0 316.416 31.993825602968457" height="31.993825602968457" width="316.416"><g><svg viewBox="0 0 316.416 31.993825602968457" height="31.993825602968457" width="316.416"><g><svg viewBox="0 0 316.416 31.993825602968457" height="31.993825602968457" width="316.416"><g><svg viewBox="0 0 316.416 31.993825602968457" height="31.993825602968457" width="316.416"><g><svg viewBox="0 0 316.416 31.993825602968457" height="31.993825602968457" width="316.416"><g transform="matrix(1,0,0,1,0,0)"><svg width="316.416" viewBox="3.55 -37.85 377.27 38.15" height="31.993825602968457" data-palette-color="#b769dc"><path d="M27.6-10.3L27.6-7.95Q27.6-3.85 24.9-1.9L24.9-1.9Q22.25 0 19.6 0L19.6 0 11.2 0Q8.55 0 6.05-1.9L6.05-1.9Q4.85-2.9 4.2-4.42 3.55-5.95 3.55-7.95L3.55-7.95 3.55-22.2Q3.55-26.25 6.05-28.2L6.05-28.2Q7.3-29.1 8.63-29.63 9.95-30.15 11.2-30.15L11.2-30.15 19.6-30.15Q20.8-30.15 22.25-29.68 23.7-29.2 24.95-28.4L24.95-28.4Q26.15-27.55 26.88-26.05 27.6-24.55 27.6-22.5L27.6-22.5 27.6-20Q27.6-17.6 24.85-17.6L24.85-17.6Q22.1-17.6 22.1-20L22.1-20 22.1-22.15Q22.1-23.4 21.33-24.43 20.55-25.45 18.7-25.45L18.7-25.45 12.45-25.45Q10.6-25.45 9.83-24.43 9.05-23.4 9.05-22.15L9.05-22.15 9.05-8Q9.05-6.8 9.83-5.75 10.6-4.7 12.45-4.7L12.45-4.7 18.7-4.7Q20.55-4.7 21.33-5.75 22.1-6.8 22.1-8L22.1-8 22.1-10.3Q22.1-12.65 24.85-12.65L24.85-12.65Q27.6-12.65 27.6-10.3L27.6-10.3ZM57.9-28L57.9-7.95Q57.9-5.95 57.2-4.4 56.5-2.85 55.2-1.9L55.2-1.9 55.25-1.9Q54-1.05 52.6-0.53 51.2 0 49.9 0L49.9 0 41.85 0Q40.6 0 39.17-0.53 37.75-1.05 36.5-1.9L36.5-1.9 36.55-1.9Q35.25-2.85 34.55-4.4 33.85-5.95 33.85-7.95L33.85-7.95 33.85-28Q33.85-30.4 36.6-30.4L36.6-30.4Q39.35-30.4 39.35-28L39.35-28 39.35-8.35Q39.35-6.95 40.05-5.9L40.05-5.9Q40.7-4.7 42.75-4.7L42.75-4.7 49-4.7Q51-4.7 51.65-5.9L51.65-5.9 51.6-5.85Q52.4-7.05 52.4-8.35L52.4-8.35 52.4-28Q52.4-30.4 55.15-30.4L55.15-30.4Q57.9-30.4 57.9-28L57.9-28ZM73.05-17.5L80.39-17.5Q81.64-17.5 83.07-16.93 84.5-16.35 85.75-15.5L85.75-15.5 85.69-15.5Q87-14.55 87.69-13.05 88.39-11.55 88.39-9.45L88.39-9.45 88.39-7.95Q88.39-3.85 85.69-1.9L85.69-1.9Q84.39-0.9 83.05-0.45 81.69 0 80.39 0L80.39 0 71.89 0Q70.59 0 69.25-0.45 67.89-0.9 66.59-1.9L66.59-1.9Q63.89-3.8 63.89-7.95L63.89-7.95 63.89-8.55Q63.89-10.7 66.64-10.65L66.64-10.65Q69.44-10.65 69.44-8.55L69.44-8.55 69.44-8Q69.44-6.8 70.19-5.75 70.94-4.7 72.84-4.7L72.84-4.7 79.44-4.7Q81.34-4.7 82.09-5.75 82.84-6.8 82.84-8L82.84-8 82.84-9.4Q82.84-10.05 82.67-10.65 82.5-11.25 82.09-11.73 81.69-12.2 81.05-12.5 80.39-12.8 79.44-12.8L79.44-12.8 72.14-12.8Q69.59-12.8 66.8-14.6L66.8-14.6Q64.14-16.3 64.14-20.45L64.14-20.45 64.14-22.15Q64.14-24.15 64.84-25.68 65.55-27.2 66.84-28.15L66.84-28.15 66.8-28.15Q68.05-29 69.44-29.55 70.84-30.1 72.14-30.1L72.14-30.1 80.14-30.1Q81.44-30.1 82.82-29.55 84.19-29 85.5-28.15L85.5-28.15 85.44-28.15Q86.75-27.2 87.44-25.68 88.14-24.15 88.14-22.15L88.14-22.15 88.14-21.7Q88.14-20.65 87.44-20.18 86.75-19.7 85.39-19.65L85.39-19.65Q82.64-19.6 82.64-21.7L82.64-21.7 82.64-22.1Q82.64-23.35 81.87-24.38 81.09-25.4 79.25-25.4L79.25-25.4 73.05-25.4Q71.19-25.4 70.42-24.38 69.64-23.35 69.64-22.1L69.64-22.1 69.64-20.9Q69.64-19.6 70.42-18.55 71.19-17.5 73.05-17.5L73.05-17.5ZM108.99 0L102.44 0Q100.89 0 99.49-0.43 98.09-0.85 96.79-1.65L96.79-1.65 96.79-1.6Q94.34-3.15 94.34-7.3L94.34-7.3 94.34-9.75Q94.34-11.8 95.07-13.33 95.79-14.85 97.09-15.75L97.09-15.75 97.04-15.75Q98.29-16.6 99.69-17.03 101.09-17.45 102.39-17.45L102.39-17.45 113.44-17.45 113.44-22.1Q113.44-23.35 112.67-24.38 111.89-25.4 110.04-25.4L110.04-25.4 104.19-25.4Q102.29-25.4 101.57-24.48 100.84-23.55 100.84-22.3L100.84-22.3 100.84-21.9Q100.84-19.3 98.04-19.3L98.04-19.3Q95.24-19.3 95.24-21.9L95.24-21.9 95.24-22.35Q95.24-24.4 95.97-25.8 96.69-27.2 97.94-28.15L97.94-28.15 97.89-28.15Q99.19-29 100.62-29.55 102.04-30.1 103.34-30.1L103.34-30.1 110.94-30.1Q112.19-30.1 113.62-29.55 115.04-29 116.29-28.15L116.29-28.15 116.24-28.15Q117.54-27.2 118.24-25.68 118.94-24.15 118.94-22.15L118.94-22.15 118.94-2.1Q118.94 0.3 116.19 0.3L116.19 0.3Q115.64 0.3 115.17 0.25 114.69 0.2 114.32-0.03 113.94-0.25 113.72-0.68 113.49-1.1 113.49-1.8L113.49-1.8 113.44-12.75 103.34-12.75Q102.24-12.75 101.64-12.5 101.04-12.25 100.69-11.7L100.69-11.7Q100.29-10.85 100.12-10.38 99.94-9.9 99.94-9.3L99.94-9.3 99.94-7.35Q99.94-6.05 100.72-5.38 101.49-4.7 103.39-4.7L103.39-4.7 108.99-4.7Q110.84-4.7 110.84-2.35L110.84-2.35Q110.84-1.35 110.39-0.68 109.94 0 108.99 0L108.99 0ZM136.09-25.4L131.94-25.4 131.94-7.2Q131.94-5.9 132.49-5.2 133.04-4.5 134.84-4.5L134.84-4.5 136.14-4.5Q138.09-4.5 137.99-2.2L137.99-2.2Q137.99 0.15 136.14 0.15L136.14 0.15 134.49 0.15Q132.89 0.15 131.49-0.28 130.09-0.7 128.79-1.5L128.79-1.5 128.79-1.45Q126.34-3.05 126.34-7.15L126.34-7.15 126.34-25.4 124.39-25.4Q122.59-25.4 122.49-27.75L122.49-27.75Q122.49-30.1 124.39-30.1L124.39-30.1 126.34-30.1 126.34-35.45Q126.34-37.85 129.19-37.85L129.19-37.85Q131.94-37.85 131.94-35.45L131.94-35.45 131.94-30.1 136.09-30.1Q138.04-30.1 137.94-27.75L137.94-27.75Q137.94-25.4 136.09-25.4L136.09-25.4ZM181.38-10.3L181.38-7.95Q181.38-3.85 178.69-1.9L178.69-1.9Q176.03 0 173.38 0L173.38 0 164.98 0Q162.34 0 159.84-1.9L159.84-1.9Q158.63-2.9 157.98-4.42 157.34-5.95 157.34-7.95L157.34-7.95 157.34-22.2Q157.34-26.25 159.84-28.2L159.84-28.2Q161.09-29.1 162.41-29.63 163.73-30.15 164.98-30.15L164.98-30.15 173.38-30.15Q174.59-30.15 176.03-29.68 177.49-29.2 178.74-28.4L178.74-28.4Q179.94-27.55 180.66-26.05 181.38-24.55 181.38-22.5L181.38-22.5 181.38-20Q181.38-17.6 178.63-17.6L178.63-17.6Q175.88-17.6 175.88-20L175.88-20 175.88-22.15Q175.88-23.4 175.11-24.43 174.34-25.45 172.48-25.45L172.48-25.45 166.23-25.45Q164.38-25.45 163.61-24.43 162.84-23.4 162.84-22.15L162.84-22.15 162.84-8Q162.84-6.8 163.61-5.75 164.38-4.7 166.23-4.7L166.23-4.7 172.48-4.7Q174.34-4.7 175.11-5.75 175.88-6.8 175.88-8L175.88-8 175.88-10.3Q175.88-12.65 178.63-12.65L178.63-12.65Q181.38-12.65 181.38-10.3L181.38-10.3ZM195.63-30.1L203.63-30.1Q204.93-30.1 206.31-29.55 207.68-29 208.98-28.15L208.98-28.15 208.93-28.15Q210.23-27.2 210.93-25.68 211.63-24.15 211.63-22.15L211.63-22.15 211.63-7.95Q211.63-3.85 208.93-1.9L208.93-1.9Q206.28 0 203.63 0L203.63 0 195.63 0Q194.33 0 192.98-0.45 191.63-0.9 190.33-1.9L190.33-1.9Q187.63-3.8 187.63-7.95L187.63-7.95 187.63-22.15Q187.63-24.15 188.33-25.68 189.03-27.2 190.33-28.15L190.33-28.15 190.28-28.15Q191.53-29 192.93-29.55 194.33-30.1 195.63-30.1L195.63-30.1ZM196.53-4.7L202.73-4.7Q204.58-4.7 205.36-5.75 206.13-6.8 206.13-8L206.13-8 206.13-22.1Q206.13-23.35 205.36-24.38 204.58-25.4 202.73-25.4L202.73-25.4 196.53-25.4Q194.68-25.4 193.91-24.38 193.13-23.35 193.13-22.1L193.13-22.1 193.13-8Q193.13-6.8 193.91-5.75 194.68-4.7 196.53-4.7L196.53-4.7ZM223.43-21.75L223.43-2.1Q223.43 0.3 220.68 0.3L220.68 0.3Q217.93 0.3 217.93-2.1L217.93-2.1 217.93-22.2Q217.93-24.25 218.58-25.75 219.23-27.25 220.63-28.2L220.63-28.2Q223.28-30.1 225.93-30.1L225.93-30.1 233.98-30.1Q236.53-30.1 239.28-28.2L239.28-28.2Q241.98-26.3 241.98-22.2L241.98-22.2 241.98-2.1Q241.98 0.3 239.23 0.3L239.23 0.3Q236.48 0.3 236.48-2.1L236.48-2.1 236.48-21.75Q236.48-23.05 235.68-24.25L235.68-24.25 235.73-24.2Q235.08-25.4 233.08-25.4L233.08-25.4 226.83-25.4Q224.78-25.4 224.13-24.2L224.13-24.2Q223.43-23.15 223.43-21.75L223.43-21.75ZM253.93-21.75L253.93-2.1Q253.93 0.3 251.18 0.3L251.18 0.3Q248.43 0.3 248.43-2.1L248.43-2.1 248.43-22.2Q248.43-24.25 249.08-25.75 249.73-27.25 251.13-28.2L251.13-28.2Q253.78-30.1 256.43-30.1L256.43-30.1 264.48-30.1Q267.03-30.1 269.78-28.2L269.78-28.2Q272.48-26.3 272.48-22.2L272.48-22.2 272.48-2.1Q272.48 0.3 269.73 0.3L269.73 0.3Q266.98 0.3 266.98-2.1L266.98-2.1 266.98-21.75Q266.98-23.05 266.18-24.25L266.18-24.25 266.23-24.2Q265.58-25.4 263.58-25.4L263.58-25.4 257.33-25.4Q255.28-25.4 254.63-24.2L254.63-24.2Q253.93-23.15 253.93-21.75L253.93-21.75ZM284.43-22.15L284.43-8Q284.43-6.8 285.2-5.75 285.98-4.7 287.83-4.7L287.83-4.7 294.08-4.7Q295.93-4.7 296.7-5.63 297.48-6.55 297.48-7.75L297.48-7.75 297.48-8.3Q297.48-10.65 300.23-10.65L300.23-10.65Q302.98-10.65 302.98-8.3L302.98-8.3 302.98-7.7Q302.98-5.6 302.3-4.25 301.63-2.9 300.28-1.9L300.28-1.9Q297.63 0 294.98 0L294.98 0 286.58 0Q283.93 0 281.43-1.9L281.43-1.9Q280.23-2.9 279.58-4.42 278.93-5.95 278.93-7.95L278.93-7.95 278.93-22.2Q278.93-26.25 281.43-28.2L281.43-28.2Q282.68-29.1 284-29.63 285.33-30.15 286.58-30.15L286.58-30.15 294.98-30.15Q296.18-30.15 297.63-29.68 299.08-29.2 300.33-28.4L300.33-28.4Q301.53-27.55 302.25-26.05 302.98-24.55 302.98-22.5L302.98-22.5 302.98-15.75Q302.98-14.6 302.3-13.7 301.63-12.8 299.83-12.8L299.83-12.8 289.03-12.8Q287.23-12.8 287.13-15.15L287.13-15.15Q287.13-17.5 289.03-17.5L289.03-17.5 297.53-17.5 297.48-22.15Q297.48-23.4 296.7-24.43 295.93-25.45 294.08-25.45L294.08-25.45 287.83-25.45Q285.98-25.45 285.2-24.43 284.43-23.4 284.43-22.15L284.43-22.15ZM333.37-10.3L333.37-7.95Q333.37-3.85 330.67-1.9L330.67-1.9Q328.02 0 325.37 0L325.37 0 316.97 0Q314.32 0 311.82-1.9L311.82-1.9Q310.62-2.9 309.97-4.42 309.32-5.95 309.32-7.95L309.32-7.95 309.32-22.2Q309.32-26.25 311.82-28.2L311.82-28.2Q313.07-29.1 314.4-29.63 315.72-30.15 316.97-30.15L316.97-30.15 325.37-30.15Q326.57-30.15 328.02-29.68 329.47-29.2 330.72-28.4L330.72-28.4Q331.92-27.55 332.65-26.05 333.37-24.55 333.37-22.5L333.37-22.5 333.37-20Q333.37-17.6 330.62-17.6L330.62-17.6Q327.87-17.6 327.87-20L327.87-20 327.87-22.15Q327.87-23.4 327.1-24.43 326.32-25.45 324.47-25.45L324.47-25.45 318.22-25.45Q316.37-25.45 315.6-24.43 314.82-23.4 314.82-22.15L314.82-22.15 314.82-8Q314.82-6.8 315.6-5.75 316.37-4.7 318.22-4.7L318.22-4.7 324.47-4.7Q326.32-4.7 327.1-5.75 327.87-6.8 327.87-8L327.87-8 327.87-10.3Q327.87-12.65 330.62-12.65L330.62-12.65Q333.37-12.65 333.37-10.3L333.37-10.3ZM350.32-25.4L346.17-25.4 346.17-7.2Q346.17-5.9 346.72-5.2 347.27-4.5 349.07-4.5L349.07-4.5 350.37-4.5Q352.32-4.5 352.22-2.2L352.22-2.2Q352.22 0.15 350.37 0.15L350.37 0.15 348.72 0.15Q347.12 0.15 345.72-0.28 344.32-0.7 343.02-1.5L343.02-1.5 343.02-1.45Q340.57-3.05 340.57-7.15L340.57-7.15 340.57-25.4 338.62-25.4Q336.82-25.4 336.72-27.75L336.72-27.75Q336.72-30.1 338.62-30.1L338.62-30.1 340.57-30.1 340.57-35.45Q340.57-37.85 343.42-37.85L343.42-37.85Q346.17-37.85 346.17-35.45L346.17-35.45 346.17-30.1 350.32-30.1Q352.27-30.1 352.17-27.75L352.17-27.75Q352.17-25.4 350.32-25.4L350.32-25.4ZM365.47-17.5L372.82-17.5Q374.07-17.5 375.49-16.93 376.92-16.35 378.17-15.5L378.17-15.5 378.12-15.5Q379.42-14.55 380.12-13.05 380.82-11.55 380.82-9.45L380.82-9.45 380.82-7.95Q380.82-3.85 378.12-1.9L378.12-1.9Q376.82-0.9 375.47-0.45 374.12 0 372.82 0L372.82 0 364.32 0Q363.02 0 361.67-0.45 360.32-0.9 359.02-1.9L359.02-1.9Q356.32-3.8 356.32-7.95L356.32-7.95 356.32-8.55Q356.32-10.7 359.07-10.65L359.07-10.65Q361.87-10.65 361.87-8.55L361.87-8.55 361.87-8Q361.87-6.8 362.62-5.75 363.37-4.7 365.27-4.7L365.27-4.7 371.87-4.7Q373.77-4.7 374.52-5.75 375.27-6.8 375.27-8L375.27-8 375.27-9.4Q375.27-10.05 375.09-10.65 374.92-11.25 374.52-11.73 374.12-12.2 373.47-12.5 372.82-12.8 371.87-12.8L371.87-12.8 364.57-12.8Q362.02-12.8 359.22-14.6L359.22-14.6Q356.57-16.3 356.57-20.45L356.57-20.45 356.57-22.15Q356.57-24.15 357.27-25.68 357.97-27.2 359.27-28.15L359.27-28.15 359.22-28.15Q360.47-29 361.87-29.55 363.27-30.1 364.57-30.1L364.57-30.1 372.57-30.1Q373.87-30.1 375.24-29.55 376.62-29 377.92-28.15L377.92-28.15 377.87-28.15Q379.17-27.2 379.87-25.68 380.57-24.15 380.57-22.15L380.57-22.15 380.57-21.7Q380.57-20.65 379.87-20.18 379.17-19.7 377.82-19.65L377.82-19.65Q375.07-19.6 375.07-21.7L375.07-21.7 375.07-22.1Q375.07-23.35 374.29-24.38 373.52-25.4 371.67-25.4L371.67-25.4 365.47-25.4Q363.62-25.4 362.84-24.38 362.07-23.35 362.07-22.1L362.07-22.1 362.07-20.9Q362.07-19.6 362.84-18.55 363.62-17.5 365.47-17.5L365.47-17.5Z" opacity="1" transform="matrix(1,0,0,1,0,0)" fill="#000000" class="undefined-text-0" data-fill-palette-color="primary" id="text-0"></path></svg></g></svg></g></svg></g></svg></g><g></g></svg></g></svg></g></svg></g><g mask="url(#1d283fdb-5b36-4023-ab71-f35ecf300ae4)"><g transform="matrix(2.622263573850086, 0, 0, 2.622263573850086, 91.92019763226284, 1)"><svg xmlns="http://www.w3.org/2000/svg" xmlns:xlink="http://www.w3.org/1999/xlink" version="1.1" x="0" y="0" viewBox="9.638 3.247 80.72399999999999 93.507" enable-background="new 0 0 100 100" xml:space="preserve" height="93.507" width="80.72399999999999" class="icon-none" data-fill-palette-color="accent" id="none"><g fill="#c27ce3" data-fill-palette-color="accent"><g fill="#c27ce3" data-fill-palette-color="accent"><polygon points="36.703,11.011 9.638,26.636 9.638,38.757 36.703,23.131 63.767,38.757 63.767,26.636   " fill="#000000" data-fill-palette-color="accent"></polygon></g><g fill="#c27ce3" data-fill-palette-color="accent"><polygon points="63.298,89.092 36.233,73.467 36.233,61.348 63.298,76.973 90.362,61.348 90.362,73.467   " fill="#000000" data-fill-palette-color="accent"></polygon></g><g fill="#c27ce3" data-fill-palette-color="accent"><polygon points="9.638,42.012 36.703,26.386 47.198,32.446 20.134,48.072 20.134,79.324 9.638,73.264   " fill="#000000" data-fill-palette-color="accent"></polygon></g><g fill="#c27ce3" data-fill-palette-color="accent"><polygon points="77.083,18.872 50.018,3.247 39.522,9.307 66.586,24.932 66.586,56.184 77.083,50.124   " fill="#000000" data-fill-palette-color="accent"></polygon></g><g fill="#c27ce3" data-fill-palette-color="accent"><polygon points="23.01,81.127 23.011,49.876 33.507,43.816 33.507,75.068 60.571,90.693 50.075,96.754   " fill="#000000" data-fill-palette-color="accent"></polygon></g><g fill="#c27ce3" data-fill-palette-color="accent"><polygon points="90.362,58.092 90.362,26.84 79.866,20.78 79.866,52.031 52.802,67.658 63.298,73.719   " fill="#000000" data-fill-palette-color="accent"></polygon></g></g></svg></g></g></svg></g><defs><mask id="1d283fdb-5b36-4023-ab71-f35ecf300ae4"><rect width="640" height="400" fill="white"></rect><rect width="348.05760000000004" height="47.09977434906122" fill="black" x="145.97119999999998" y="176.45011282546938" id="transform-me" transform="matrix(1,0,0,1,-122.24000000000001,-76.4)"></rect></mask></defs></svg><rect width="395.52" height="247.2" fill="none" stroke="none" visibility="hidden"></rect></g></svg></g></svg>