<?xml version="1.0" standalone="no"?>
<!DOCTYPE svg PUBLIC "-//W3C//DTD SVG 20010904//EN"
 "http://www.w3.org/TR/2001/REC-SVG-20010904/DTD/svg10.dtd">
<svg version="1.0" xmlns="http://www.w3.org/2000/svg"
 width="200.000000pt" height="200.000000pt" viewBox="0 0 200.000000 200.000000"
 preserveAspectRatio="xMidYMid meet">
<metadata>
Created by potrace 1.16, written by Peter Selinger 2001-2019
</metadata>
<g transform="translate(0.000000,200.000000) scale(0.100000,-0.100000)"
fill="#000000" stroke="none">
<path d="M490 1725 l0 -65 -105 0 c-99 0 -107 -2 -131 -25 l-24 -24 2 -687 c3
-665 4 -686 22 -700 17 -12 111 -14 570 -14 303 0 556 4 561 8 6 4 94 93 198
198 l187 190 0 503 0 502 -25 24 c-23 23 -31 25 -130 25 l-105 0 0 65 0 65
-60 0 -60 0 0 -65 0 -65 -390 0 -390 0 0 65 0 65 -60 0 -60 0 0 -65z m1150
-790 l0 -245 -157 0 c-132 0 -159 -3 -175 -17 -16 -14 -18 -34 -18 -175 l0
-158 -465 0 -465 0 0 420 0 420 640 0 640 0 0 -245z"/>
</g>
</svg>
