<?xml version="1.0" standalone="no"?>
<!DOCTYPE svg PUBLIC "-//W3C//DTD SVG 20010904//EN"
 "http://www.w3.org/TR/2001/REC-SVG-20010904/DTD/svg10.dtd">
<svg version="1.0" xmlns="http://www.w3.org/2000/svg"
 width="225.000000pt" height="225.000000pt" viewBox="0 0 225.000000 225.000000"
 preserveAspectRatio="xMidYMid meet">
<metadata>
Created by potrace 1.16, written by Peter Selinger 2001-2019
</metadata>
<g transform="translate(0.000000,225.000000) scale(0.100000,-0.100000)"
fill="#000000" stroke="none">
<path d="M690 2024 c-111 -18 -156 -31 -230 -66 -115 -55 -231 -169 -283 -278
-62 -131 -80 -270 -53 -412 55 -283 156 -397 790 -891 117 -91 197 -147 211
-147 30 0 390 275 620 474 239 207 314 309 371 506 27 97 26 282 -3 375 -32
100 -87 187 -170 266 -189 179 -467 223 -691 110 -33 -16 -73 -41 -89 -55 -38
-32 -38 -32 -76 0 -89 75 -290 135 -397 118z m212 -143 c32 -12 85 -43 119
-69 110 -83 98 -78 124 -61 12 8 50 35 84 61 81 62 156 90 256 96 158 9 275
-37 391 -152 81 -81 117 -147 140 -256 26 -125 5 -263 -63 -400 -47 -94 -161
-212 -385 -397 -162 -133 -432 -343 -443 -343 -20 0 -553 431 -671 543 -136
128 -201 249 -225 419 -11 73 -10 97 4 168 23 116 58 182 141 265 119 117 217
157 376 151 68 -2 111 -9 152 -25z"/>
</g>
</svg>
