<?xml version="1.0" standalone="no"?>
<!DOCTYPE svg PUBLIC "-//W3C//DTD SVG 20010904//EN"
 "http://www.w3.org/TR/2001/REC-SVG-20010904/DTD/svg10.dtd">
<svg version="1.0" xmlns="http://www.w3.org/2000/svg"
 width="360.000000pt" height="360.000000pt" viewBox="0 0 360.000000 360.000000"
 preserveAspectRatio="xMidYMid meet">
<metadata>
Created by potrace 1.16, written by Peter Selinger 2001-2019
</metadata>
<g transform="translate(0.000000,360.000000) scale(0.100000,-0.100000)"
fill="#000000" stroke="none">
<path d="M642 3010 c-18 -11 -41 -34 -52 -52 -20 -32 -20 -53 -20 -1158 0
-1105 0 -1126 20 -1158 11 -18 34 -41 52 -52 32 -20 53 -20 1158 -20 1105 0
1126 0 1158 20 18 11 41 34 52 52 20 32 20 53 20 1158 0 1105 0 1126 -20 1158
-11 18 -34 41 -52 52 -32 20 -53 20 -1158 20 -1105 0 -1126 0 -1158 -20z
m2276 -92 c17 -17 17 -2219 0 -2236 -17 -17 -2219 -17 -2236 0 -17 17 -17
2219 0 2236 17 17 2219 17 2236 0z"/>
<path d="M829 2777 c-1 -1 -2 -23 -3 -49 l-3 -48 978 0 978 0 -2 48 -2 47
-973 2 c-534 2 -972 2 -973 0z"/>
<path d="M1087 2510 c-70 -18 -145 -79 -179 -145 -29 -56 -35 -158 -13 -224
22 -68 96 -142 161 -165 221 -75 434 117 370 336 -22 76 -74 141 -140 173 -60
29 -141 39 -199 25z m151 -111 c115 -56 134 -213 36 -298 -42 -37 -69 -45
-138 -39 -95 8 -156 77 -156 178 0 78 36 132 110 164 49 21 96 20 148 -5z"/>
<path d="M1842 1884 c-64 -17 -92 -31 -92 -46 0 -6 9 -25 20 -43 l21 -33 57
20 c43 15 74 19 127 16 117 -8 148 -30 402 -284 122 -123 223 -226 223 -229 0
-3 -104 -5 -232 -5 l-232 0 -196 195 c-168 166 -206 199 -263 225 -123 58
-253 58 -374 -1 -50 -24 -97 -65 -252 -220 l-190 -190 16 -42 c9 -23 23 -47
31 -54 10 -9 99 -12 323 -13 l309 0 0 50 0 50 -270 0 c-148 0 -270 2 -270 5 0
3 67 73 149 154 180 179 222 204 341 205 128 0 160 -20 400 -259 l205 -203
291 -1 c217 -1 294 2 306 12 8 6 22 31 31 54 l16 42 -267 268 c-280 280 -315
308 -423 332 -61 14 -144 12 -207 -5z"/>
<path d="M824 873 l1 -48 975 0 975 0 2 48 2 47 -977 0 -978 0 0 -47z"/>
</g>
</svg>
