<?xml version="1.0" standalone="no"?>
<!DOCTYPE svg PUBLIC "-//W3C//DTD SVG 20010904//EN"
 "http://www.w3.org/TR/2001/REC-SVG-20010904/DTD/svg10.dtd">
<svg version="1.0" xmlns="http://www.w3.org/2000/svg"
 width="225.000000pt" height="225.000000pt" viewBox="0 0 225.000000 225.000000"
 preserveAspectRatio="xMidYMid meet">
<metadata>
Created by potrace 1.16, written by Peter Selinger 2001-2019
</metadata>
<g transform="translate(0.000000,225.000000) scale(0.100000,-0.100000)"
fill="#000000" stroke="none">
<path d="M895 2104 c-464 -71 -813 -342 -881 -683 -61 -308 123 -609 483 -790
l83 -41 -20 -52 c-26 -68 -77 -141 -149 -214 -32 -33 -64 -69 -70 -82 -26 -50
13 -112 70 -112 27 0 235 67 354 115 110 44 299 141 388 200 75 49 88 54 157
60 264 24 560 160 730 335 240 247 274 558 92 827 -55 82 -193 209 -288 265
-144 87 -335 152 -518 177 -104 15 -321 12 -431 -5z m455 -109 c506 -82 849
-423 781 -777 -60 -308 -417 -563 -850 -606 -86 -9 -91 -11 -182 -72 -102 -68
-220 -130 -356 -186 -126 -52 -227 -86 -216 -71 6 6 28 36 51 64 75 98 122
231 104 297 -7 24 -21 34 -93 66 -478 205 -621 649 -316 976 148 159 370 268
627 309 117 18 335 18 450 0z"/>
<path d="M1032 1784 l-22 -15 0 -415 c0 -267 4 -422 10 -435 9 -17 22 -19 103
-19 59 0 97 4 105 12 9 9 12 119 12 434 l0 423 -22 15 c-15 11 -45 16 -93 16
-48 0 -78 -5 -93 -16z m168 -439 l0 -365 -70 0 -70 0 0 365 0 365 70 0 70 0 0
-365z"/>
<path d="M706 1624 c-14 -13 -16 -60 -16 -358 0 -253 3 -345 12 -354 16 -16
190 -16 206 0 9 9 12 103 12 360 0 403 11 368 -119 368 -59 0 -84 -4 -95 -16z"/>
<path d="M1348 1379 c-16 -9 -18 -31 -18 -232 0 -160 3 -226 12 -235 8 -8 46
-12 103 -12 57 0 95 4 103 12 9 9 12 73 12 228 0 261 5 250 -116 250 -43 0
-87 -5 -96 -11z"/>
</g>
</svg>
