<svg xmlns="http://www.w3.org/2000/svg" xmlns:xlink="http://www.w3.org/1999/xlink" version="1.1" width="256" height="256" viewBox="0 0 256 256" xml:space="preserve">

<defs>
</defs>
<g style="stroke: none; stroke-width: 0; stroke-dasharray: none; stroke-linecap: butt; stroke-linejoin: miter; stroke-miterlimit: 10; fill: none; fill-rule: nonzero; opacity: 1;" transform="translate(1.4065934065934016 1.4065934065934016) scale(2.81 2.81)" >
	<path d="M 27.089 24.79 c 2.099 -4.105 5.749 -7.382 10.454 -8.857 c 9.409 -2.949 19.471 2.426 22.474 12.006 c 7.15 22.808 -16.873 29.528 -17.443 46.247 C 32.561 60.785 9.001 68.981 1.852 46.173 c -3.003 -9.58 2.19 -19.737 11.599 -22.687 C 18.155 22.011 23.022 22.618 27.089 24.79 z" style="stroke: none; stroke-width: 1; stroke-dasharray: none; stroke-linecap: butt; stroke-linejoin: miter; stroke-miterlimit: 10; fill: rgb(255,0,0); fill-rule: nonzero; opacity: 1;" transform=" matrix(1 0 0 1 0 0) " stroke-linecap="round" />
	<path d="M 10.071 43.596 C 7.305 34.77 9.818 25.985 15.68 22.948 c -0.745 0.131 -1.49 0.306 -2.23 0.538 C 4.041 26.435 -1.152 36.593 1.852 46.173 c 7.15 22.808 30.709 14.613 40.722 28.014 c 0.013 -0.371 0.05 -0.73 0.086 -1.091 C 33.84 60.417 17.063 65.899 10.071 43.596 z" style="stroke: none; stroke-width: 1; stroke-dasharray: none; stroke-linecap: butt; stroke-linejoin: miter; stroke-miterlimit: 10; fill: rgb(255,85,85); fill-rule: nonzero; opacity: 1;" transform=" matrix(1 0 0 1 0 0) " stroke-linecap="round" />
	<path d="M 42.573 75.187 c -0.31 0 -0.609 -0.145 -0.801 -0.401 c -3.965 -5.308 -10.228 -7.072 -16.858 -8.939 C 15.238 63.12 5.232 60.301 0.897 46.472 c -3.163 -10.091 2.334 -20.83 12.253 -23.94 c 4.495 -1.41 9.258 -1.074 13.522 0.931 c 2.356 -4.08 6.076 -7.075 10.57 -8.483 c 9.92 -3.11 20.565 2.57 23.727 12.661 c 4.336 13.83 -2.271 21.855 -8.659 29.617 c -4.378 5.319 -8.513 10.343 -8.739 16.964 c -0.015 0.424 -0.295 0.793 -0.7 0.92 C 42.774 75.172 42.673 75.187 42.573 75.187 z M 18.724 23.674 c -1.667 0 -3.341 0.254 -4.975 0.766 C 4.882 27.22 -0.027 36.835 2.806 45.874 C 6.817 58.67 16.292 61.339 25.456 63.92 c 5.914 1.666 12.005 3.382 16.357 7.843 c 1.027 -6.146 5.049 -11.033 8.954 -15.776 c 6.05 -7.351 12.307 -14.952 8.295 -27.748 c -2.833 -9.039 -12.35 -14.13 -21.22 -11.351 c -4.293 1.346 -7.795 4.314 -9.862 8.358 c -0.123 0.239 -0.335 0.419 -0.591 0.499 c -0.257 0.08 -0.534 0.054 -0.771 -0.072 C 24.137 24.347 21.438 23.674 18.724 23.674 z" style="stroke: none; stroke-width: 1; stroke-dasharray: none; stroke-linecap: butt; stroke-linejoin: miter; stroke-miterlimit: 10; fill: rgb(0,0,0); fill-rule: nonzero; opacity: 1;" transform=" matrix(1 0 0 1 0 0) " stroke-linecap="round" />
	<path d="M 70.652 40.208 c 2.837 -1.542 6.243 -1.99 9.544 -0.981 c 6.603 2.019 10.29 9.105 8.234 15.829 c -4.894 16.007 -21.432 10.385 -28.376 19.819 C 59.572 63.17 42.717 58.584 47.61 42.577 c 2.055 -6.723 9.074 -10.537 15.678 -8.519 C 66.59 35.068 69.162 37.344 70.652 40.208 z" style="stroke: none; stroke-width: 1; stroke-dasharray: none; stroke-linecap: butt; stroke-linejoin: miter; stroke-miterlimit: 10; fill: rgb(255,0,0); fill-rule: nonzero; opacity: 1;" transform=" matrix(1 0 0 1 0 0) " stroke-linecap="round" />
	<path d="M 53.379 44.34 c 1.894 -6.194 6.822 -10.275 11.41 -9.71 c -0.482 -0.219 -0.982 -0.413 -1.501 -0.572 c -6.603 -2.019 -13.622 1.795 -15.678 8.519 C 42.717 58.584 59.572 63.17 60.054 74.875 c 0.154 -0.209 0.318 -0.402 0.481 -0.597 C 60.456 63.464 48.594 59.992 53.379 44.34 z" style="stroke: none; stroke-width: 1; stroke-dasharray: none; stroke-linecap: butt; stroke-linejoin: miter; stroke-miterlimit: 10; fill: rgb(255,85,85); fill-rule: nonzero; opacity: 1;" transform=" matrix(1 0 0 1 0 0) " stroke-linecap="round" />
	<path d="M 60.055 75.875 c -0.098 0 -0.196 -0.015 -0.292 -0.044 c -0.406 -0.124 -0.689 -0.491 -0.707 -0.915 c -0.187 -4.534 -3.076 -7.993 -6.135 -11.656 c -4.351 -5.21 -9.281 -11.115 -6.267 -20.976 c 2.213 -7.24 9.81 -11.357 16.926 -9.183 c 3.14 0.96 5.762 2.999 7.475 5.79 c 2.98 -1.356 6.294 -1.581 9.434 -0.62 c 3.453 1.055 6.279 3.415 7.96 6.645 c 1.677 3.224 2.01 6.929 0.938 10.432 c -3.014 9.86 -10.404 11.999 -16.924 13.886 c -4.584 1.327 -8.913 2.58 -11.603 6.234 C 60.668 75.729 60.367 75.875 60.055 75.875 z M 59.699 34.52 c -4.957 0 -9.583 3.281 -11.133 8.349 c -2.697 8.825 1.474 13.82 5.89 19.109 c 2.665 3.191 5.407 6.475 6.305 10.586 c 3.043 -2.906 7.152 -4.096 11.146 -5.252 c 6.618 -1.915 12.869 -3.725 15.567 -12.549 c 0.917 -3 0.633 -6.169 -0.801 -8.925 c -1.431 -2.75 -3.835 -4.758 -6.77 -5.655 c -2.935 -0.898 -6.051 -0.576 -8.774 0.903 c -0.237 0.128 -0.513 0.155 -0.77 0.078 c -0.257 -0.079 -0.472 -0.257 -0.595 -0.495 c -1.431 -2.75 -3.835 -4.758 -6.77 -5.655 C 61.9 34.68 60.791 34.52 59.699 34.52 z" style="stroke: none; stroke-width: 1; stroke-dasharray: none; stroke-linecap: butt; stroke-linejoin: miter; stroke-miterlimit: 10; fill: rgb(0,0,0); fill-rule: nonzero; opacity: 1;" transform=" matrix(1 0 0 1 0 0) " stroke-linecap="round" />
</g>
</svg>